<svg width="452" height="234" viewBox="0 0 452 234" fill="none" xmlns="http://www.w3.org/2000/svg"><g clip-path="url(#clip0)"><path fill-rule="evenodd" clip-rule="evenodd" d="M115.807 108.117h25.309c3.704 0 7.037.495 9.877 1.61 2.84 1.115 5.185 2.478 7.037 4.336 1.482 1.487 2.593 3.097 3.334 5.079.864 1.982 1.234 3.964 1.234 6.194v.124c0 2.478-.494 4.832-1.358 6.814a15.432 15.432 0 01-3.704 5.203c-1.605 1.486-3.457 2.601-5.555 3.469-2.099.867-4.445 1.486-7.038 1.858l19.878 25.891h-5.556l-19.26-25.024h-19.754v25.024h-4.444v-60.578zm24.815 31.342c2.469 0 4.815-.372 7.037-.991 2.099-.619 3.951-1.611 5.556-2.726 1.605-1.238 2.716-2.601 3.704-4.335a13.042 13.042 0 001.358-5.823v-.124c0-4.088-1.481-7.309-4.568-9.663-2.963-2.353-7.284-3.592-12.84-3.592h-20.618v27.378h20.371v-.124zm59.755 30.227c-4.321 0-8.272-.867-11.975-2.477-3.704-1.611-6.914-3.841-9.507-6.566-2.716-2.849-4.815-6.07-6.296-9.911-1.482-3.84-2.223-7.928-2.223-12.14v-.124c0-4.212.741-8.3 2.346-12.141 1.482-3.84 3.58-7.185 6.297-10.034 2.716-2.849 5.802-5.079 9.506-6.69 3.704-1.61 7.655-2.477 12.099-2.477 2.716 0 5.186.247 7.284.743 2.223.495 4.198 1.115 6.05 1.982a32.92 32.92 0 015.309 3.097c1.605 1.239 3.21 2.478 4.815 3.964l-3.21 3.345c-1.358-1.239-2.716-2.478-4.198-3.592-1.481-1.115-2.963-1.983-4.568-2.85-1.605-.743-3.457-1.363-5.309-1.858-1.975-.496-3.95-.743-6.296-.743-3.581 0-7.037.743-10.124 2.106-3.087 1.362-5.803 3.344-8.025 5.698-2.222 2.478-4.074 5.327-5.309 8.548-1.234 3.345-1.975 6.814-1.975 10.654v.124c0 3.84.617 7.309 1.975 10.654 1.358 3.345 3.087 6.194 5.433 8.672 2.222 2.477 4.938 4.336 8.024 5.822 3.087 1.363 6.42 2.106 10.124 2.106 4.321 0 8.149-.867 11.359-2.477 3.21-1.611 6.296-3.965 9.383-7.062l2.963 2.973c-1.605 1.611-3.21 2.974-4.939 4.336-1.728 1.239-3.457 2.354-5.432 3.345-1.975.867-3.951 1.611-6.296 2.106-2.223.62-4.692.867-7.285.867zm87.781-10.777l-8.395-8.548c-2.346 2.23-4.692 3.964-7.161 5.203-2.346 1.239-5.309 1.858-8.766 1.858-2.592 0-4.938-.495-7.16-1.487a17.947 17.947 0 01-5.556-4.088c-1.482-1.734-2.716-3.716-3.581-6.07-.864-2.354-1.234-4.708-1.234-7.309v-.124c0-2.601.37-5.079 1.234-7.309.865-2.23 2.099-4.336 3.581-6.07a17.947 17.947 0 015.556-4.088c2.098-.992 4.444-1.487 7.037-1.487 3.086 0 5.803.619 8.272 1.858 2.469 1.239 4.815 2.85 7.161 4.956l8.395-9.787c-1.358-1.363-2.84-2.602-4.445-3.841a31.091 31.091 0 00-5.309-2.973c-1.851-.867-3.95-1.486-6.296-1.858-2.346-.496-4.938-.743-7.655-.743-4.691 0-8.889.867-12.716 2.477-3.827 1.611-7.161 3.841-9.877 6.69-2.716 2.849-4.938 6.194-6.42 9.911-1.605 3.716-2.346 7.804-2.346 12.14v.124c0 4.336.741 8.424 2.346 12.141 1.605 3.84 3.704 7.061 6.42 9.91 2.716 2.85 6.05 4.956 9.877 6.566 3.827 1.611 7.901 2.478 12.346 2.478 2.963 0 5.556-.248 7.901-.744a33.674 33.674 0 006.544-2.106c1.975-.991 3.827-2.106 5.432-3.468a30.097 30.097 0 004.815-4.212zm39.631-17.096h-19.754c.494-2.973 1.605-5.451 3.334-7.185 1.728-1.735 3.951-2.726 6.667-2.726 2.716 0 4.938.867 6.667 2.726 1.605 1.858 2.592 4.212 3.086 7.185zm12.717 4.955v-.124c0-3.345-.494-6.442-1.358-9.415-.865-2.973-2.223-5.699-4.198-8.052-1.852-2.354-4.198-4.212-7.037-5.575-2.84-1.363-6.173-2.106-10.001-2.106-3.333 0-6.42.619-9.259 1.858a20.178 20.178 0 00-7.161 5.203c-1.975 2.23-3.58 4.708-4.691 7.681-1.112 2.973-1.729 6.07-1.729 9.291v.124c0 3.593.617 6.814 1.852 9.787 1.235 2.973 2.84 5.451 5.062 7.557 2.099 2.106 4.691 3.716 7.654 4.955a27.152 27.152 0 009.63 1.734c4.198 0 7.902-.743 10.988-2.353 3.087-1.487 5.803-3.593 7.902-6.318l-7.531-6.69c-1.852 1.734-3.581 2.849-5.309 3.593-1.728.743-3.704 1.115-5.803 1.115-2.963 0-5.432-.744-7.407-2.354-1.976-1.487-3.334-3.841-3.951-6.814h32.1c0-.619.123-1.239.123-1.61.124-.372.124-.867.124-1.487z" fill="#6CACE4"/><path d="M363.963 105.515h-13.087v63.18h13.087v-63.18z" fill="#6CACE4"/><path fill-rule="evenodd" clip-rule="evenodd" d="M402.236 166.713v-10.53c-1.975 1.115-4.197 1.611-6.42 1.611-2.839 0-4.197-1.487-4.197-4.46v-19.821h10.864v-11.274h-10.864v-11.893h-13.087v11.893h-5.68v11.274h5.556v21.927c0 2.725.371 4.955.988 6.69a11.788 11.788 0 002.716 4.335c1.235 1.115 2.593 1.859 4.198 2.23 1.605.372 3.457.62 5.432.62 2.222 0 4.074-.248 5.803-.744 1.728-.371 3.333-.991 4.691-1.858zm37.162-14.37c0 2.477-.988 4.336-2.84 5.822-1.851 1.487-4.321 2.23-7.407 2.23-2.099 0-3.827-.495-5.186-1.486-1.358-.991-1.975-2.354-1.975-4.212v-.124c0-2.106.864-3.717 2.469-4.708 1.605-1.115 3.828-1.61 6.667-1.61 1.605 0 3.087.124 4.568.495 1.358.372 2.716.744 3.828 1.239v2.354h-.124zm12.346 16.352v-27.006c0-6.318-1.605-11.15-4.938-14.742-3.334-3.469-8.519-5.327-15.68-5.327-3.951 0-7.284.371-10 .991-2.716.743-5.432 1.61-7.902 2.725l3.334 10.035a33.242 33.242 0 016.049-1.858 35.904 35.904 0 016.667-.62c3.334 0 5.803.743 7.408 2.106 1.605 1.487 2.469 3.593 2.469 6.318v.744c-1.728-.62-3.333-.992-5.185-1.363-1.729-.372-3.827-.496-6.173-.496-2.716 0-5.309.248-7.531.867-2.223.62-4.198 1.487-5.803 2.726-1.605 1.239-2.963 2.725-3.827 4.584-.865 1.858-1.358 4.088-1.358 6.565v.124c0 2.354.37 4.336 1.234 6.071.864 1.734 1.976 3.22 3.457 4.459 1.482 1.239 3.087 2.106 5.062 2.726 1.975.619 3.951.867 6.173.867 3.21 0 5.926-.496 8.148-1.611 2.223-1.115 4.198-2.477 5.803-4.335v4.955h12.593v.495z" fill="#6CACE4"/><path d="M53.335 62.156h-4.197c0-7.433-.247-16.724-1.729-17.344-1.728-.743-3.58.248-2.346 2.85 1.482 2.849.618 4.831-2.222 5.079-2.346.248-5.432-.248-7.037-5.699-1.852-6.442 2.469-8.052 9.63-14.742 6.173-5.698 7.901-8.3 7.901-8.3s1.729 2.602 8.025 8.424c7.16 6.566 11.482 8.176 9.63 14.742-1.605 5.451-4.691 5.823-7.037 5.699-2.84-.248-3.58-2.23-2.222-5.08 1.358-2.601-.494-3.592-2.346-2.849-1.482.62-1.729 9.91-1.729 17.344h-4.32v-.124zm0 146.925l-13.704-79.037c5.062-1.363 8.766-5.823 9.013-11.15h9.383c.247 5.327 3.95 9.911 9.012 11.15l-13.704 79.037zM5.803 85.322c-.988-.867-1.605-1.982-2.346-2.725-.988-.991-2.099-1.735-3.457-1.735 1.358 0 2.47-.743 3.333-1.734.741-.743 1.359-1.982 2.346-2.725.618-.496 1.482-.868 2.346-.868 1.482 0 2.716.868 3.333 2.23.741 0 2.963 0 4.322-.124 1.605-.124 2.716-.124.864-1.486l-.864-.62c-1.235-.743-2.223-1.858-2.717-3.22-.123-.124-.123-.372-.246-.62-.124-.248-.124-.495-.247-.867-.124-.372-.124-.867-.124-1.363 0-3.716 2.84-6.69 6.544-6.937h1.358c.123 0 .37.123.493.123.741.124 1.358.496 2.1.868l.246.124c3.457 2.23 5.062 6.442 5.062 6.442s-.864-.496-4.445-1.115c-2.716-.372-4.32.867-3.95 3.344.617 3.84 5.802 4.832 5.802 4.832h9.013v7.309h-9.013s-5.185.991-5.802 4.831c-.37 2.602 1.234 3.84 3.95 3.221 3.58-.743 4.445-1.115 4.445-1.115s-1.605 4.336-5.062 6.442l-.247.124a5.817 5.817 0 01-2.099.867c-.123 0-.37.124-.493.124-.494.124-.988.124-1.358 0-3.704-.124-6.544-3.22-6.544-6.813 0-.496 0-.867.124-1.363 0-.248.123-.62.246-.867.124-.248.124-.372.247-.62.618-1.362 1.482-2.477 2.717-3.22l.864-.62c1.852-1.363.617-1.363-.864-1.487-1.235-.124-3.58-.124-4.322-.124-.493 1.363-1.851 2.23-3.333 2.23-.864.124-1.605-.247-2.222-.743zm94.694 0c.988-.867 1.605-1.982 2.346-2.725.864-.991 1.976-1.735 3.334-1.735-1.358 0-2.47-.743-3.334-1.734-.741-.743-1.358-1.982-2.346-2.725-.617-.496-1.481-.868-2.345-.868-1.482 0-2.716.868-3.334 2.23-.74 0-3.086 0-4.321-.124-1.605-.124-2.716-.124-.864-1.486l.864-.62c1.235-.743 2.222-1.858 2.716-3.22.124-.124.124-.372.247-.62.124-.248.124-.495.247-.867.124-.496.124-.867.124-1.363 0-3.716-2.84-6.69-6.544-6.937h-1.358c-.124 0-.37.123-.494.123-.74.124-1.358.496-2.099.868l-.247.124c-3.457 2.23-5.062 6.442-5.062 6.442s.865-.496 4.445-1.115c2.716-.372 4.321.867 3.95 3.344-.617 3.84-5.802 4.832-5.802 4.832h-9.013v7.309h9.013s5.185.991 5.803 4.831c.37 2.602-1.235 3.84-3.951 3.221-3.58-.743-4.445-1.115-4.445-1.115s1.605 4.336 5.062 6.442l.247.124a5.81 5.81 0 002.1.867c.123 0 .37.124.493.124.494.124.988.124 1.358 0 3.58-.248 6.543-3.22 6.543-6.937 0-.496 0-.867-.123-1.363 0-.248-.123-.62-.247-.867-.123-.248-.123-.372-.247-.62-.617-1.362-1.481-2.477-2.716-3.22l-.864-.62c-1.852-1.363-.617-1.363.864-1.487 1.235-.123 3.58-.123 4.321-.123.494 1.362 1.852 2.23 3.334 2.23.864.247 1.605-.124 2.345-.62z" fill="#D50032"/><path d="M66.422 114.311c-3.58 4.336-8.025 7.061-12.716 9.539l-.618.371-.617-.247c-4.692-2.478-9.26-5.327-12.84-9.539-8.519-10.283-12.84-25.396-12.716-38.776h52.223c.37 13.132-4.32 28.617-12.716 38.652z" fill="#fff"/><path d="M77.904 72.438c1.111 13.627-3.58 30.476-12.346 41.129-3.457 4.089-7.778 6.814-12.346 9.292-4.568-2.478-9.013-5.203-12.47-9.292-8.889-10.777-13.21-27.254-12.346-41.129h49.508z" fill="#6CACE4"/><path d="M66.793 68.598c-7.161-2.85-8.149-3.469-13.581-3.469-6.544 0-7.161.62-13.581 3.469-.617-.372-1.481-1.115-1.975-1.734 0-.496.123-1.115.494-1.735.987-1.982 3.58-3.716 5.555-3.84 2.346-1.858 6.173-2.85 8.89-2.354.246 0 .493.124.617.124.247 0 .37-.124.617-.124 2.716-.495 6.544.495 8.89 2.354 2.098.124 4.567 1.858 5.555 3.84.37.62.494 1.239.494 1.734-.494.62-1.358 1.363-1.975 1.735z" fill="#C09A4E"/><path d="M53.212 54.227c6.913-3.097 10.37-.619 10.988 2.974 8.519-2.106 7.778 10.654 2.592 12.636l-.74 1.486c-4.322-.867-7.408-1.238-12.84-1.238-3.951 0-9.754.247-13.21.743l-.371-.991c-5.309-1.859-6.05-14.742 2.47-12.636.74-3.593 4.073-6.07 11.11-2.974zm-13.087 12.39c3.457.124 3.21-2.23 2.84-4.088-.248-1.363-.988-1.859-.988-3.965-2.222-1.858-4.692 1.61-4.939 3.965-.247 4.088 2.84 4.088 3.087 4.088zM52.1 54.97c-11.482-5.08-9.136 11.645-.988 7.68.494-.247.494-.743.37-1.238-.37-1.859-.123-4.46.618-6.442zm2.098 0c.741 1.858.988 4.46.618 6.442-.124.495-.124.99.37 1.239 8.149 4.088 10.494-12.76-.988-7.681zm11.976 11.645c.247 0 3.457 0 3.087-4.212-.247-2.354-2.716-5.699-4.939-3.965 0 2.106-.74 2.602-.987 3.965-.37 1.982-.618 4.336 2.84 4.212z" fill="#C09A4E"/><path d="M67.04 70.332l-1.976 3.221.123.124v.124c0 .124 0 .124-.123.248 0 .124-.123.124-.247.124h-.123c-.124 0-.247 0-.247-.124-.618-.372-1.358-.62-1.976-.867-.987-.372-1.852-.62-2.592-.868-.988-.247-1.852-.495-2.717-.619-.987-.124-1.852-.248-2.592-.248h-2.716c-.741 0-1.729.124-2.593.248-.864.124-1.729.248-2.716.62-.864.247-1.729.495-2.593.867-.617.247-1.358.495-1.975.867-.124.124-.247.124-.247.124-.124 0-.124 0-.247-.124a.378.378 0 010-.496l-1.975-3.22c7.284-5.08 20.124-5.08 27.531 0zM52.1 49.52v-.124h2.1l-.371 1.239.988-.372v2.106l-.988-.371.37 1.61h-2.098l.37-1.61-.988.371v-2.106l.988.372-.37-1.115z" fill="#C09A4E"/><path d="M57.039 63.767a.948.948 0 01-.247-.62c0-.248.124-.495.247-.62l.247-.247c.123 0 .123-.124.247-.124h.494c.123 0 .123 0 .247.124.123.124.247.124.247.248a.948.948 0 01.246.619v.248c0 .248-.123.371-.246.62l-.247.247c-.124 0-.124.124-.247.124h-.124c.124 1.239 1.852 2.354 3.21 1.61.247-.123.618-.371.864-.62-.123-.123-.123-.247-.246-.37h-.247l-.124-.125c-.123 0-.247.124-.247.124h-.123c-.124 0-.124.124-.247.124-.124 0-.124.124-.247.124 0 0-.123 0-.123.124 0 0-.124.124-.247.124 0 0-.124 0-.124.124h-.123c-.247 0-.37-.248-.247-.496.123-.124.123-.248.247-.372l.123-.123v-.124c0-.124 0-.124-.123-.248-.124-.372 0-.62.123-.743 0-.124.124-.124.124-.248.123-.124.123-.124.123-.248.123-.124.247-.124.247-.248.123 0 .123-.123.123-.123 0-.372.124-.496.124-.62h.37c.124 0 .247.248.247.496v.123c0 .248 0 .372.124.62 0 .124.123.124.123.248.124.124.124.248.247.371a.679.679 0 01.617-.371v.124c-.247-.248-.37-.372-.493-.62-.124-.248-.124-.248-.247-.62 0 0-.124-.247-.247-.37 0-.125 0-.249.123-.373.124 0 .247-.123.494.124l.247.248c.123.124.247 0 .37 0 .124 0 .247-.124.37-.124h.248s.247 0 .37.248c.123.124.123.248.123.372 0 .123.124.247.247.247h.37c.248.124.495.124.495.248s-.124.248-.247.372h-.37c-.248 0-.371.124-.618.248-.247.123-.494.247-.74.247h-.124c.247.124.37.372.37.62.247 0 .37-.124.617-.248s.37-.372.618-.495c.123 0 .247-.124.37-.124.247 0 .37.247.247.495l-.247.248c-.123.124 0 .371 0 .495.124.496-.123.744-.247.868-.247.371-.617.371-.494.619.124.496-.123.743-.247.743-.123 0-.493 0-.493-.62 0-.247 0-.618-.124-.866-.123-.248-.247-.248-.247-.62-.123.124-.247.124-.494.124 0 1.61 1.358 2.354 2.593 2.106.37 0 .617-.124.988-.371-.124-.124-.124-.248-.124-.372 0-.372.37-.743.741-.743.37 0 .74.371.74.743 0 .371-.37.743-.74.743h-.247c-.123 1.363.988 2.478 2.346 1.61-.124-.123-.124-.247-.124-.371-.247.124-.864.248-.987.248-.247 0-.247-.124-.247-.248s.123-.248.247-.248c.123-.124 0-.371.123-.62.124-.247.124-.247.37-.247.247-.124.247 0 .247-.124.124 0 .124-.248.124-.248l.123-.123h.247c.124.123.124.247.124.371v.743c.123 0 .123-.123.247-.123h.123c0-.124.124-.496.124-.744v-.371c.123-.124.246 0 .37 0 .123.124.37.495.494.495h.37c.247.124.618.496.618.62 0 .247 0 .123-.124.247-.123.124-.617 0-.988 0-.123 0-.247.124-.37.124l-.37.372-.247.248h-.124c-.37.371-.864.62-1.481.743h-.247c-.247 0-.494-.124-.864-.248-.865-.371-.618-1.61-.618-1.858-.247.248-.494.248-.864.372-.617.123-1.235.123-1.852-.124-.988-.372-1.235-1.735-1.235-2.23 0 .124-.37.495-.864.62-.494.247-1.234.495-1.852.247-.987-.248-1.358-.991-1.852-1.61-.123.123-.123.247-.246.371-.494.372-1.235.743-1.976.743-1.111-.123-1.852-1.115-1.975-1.486-.247.248-.988 1.363-1.976 1.487-.74.123-1.481-.372-1.975-.744l-.247-.248c-.494.62-.74 1.363-1.852 1.61-.617.249-1.358 0-1.852-.247-.494-.248-.864-.495-.864-.62 0 .372-.247 1.735-1.235 2.23-.617.248-1.358.248-1.852.124-.37-.123-.617-.247-.864-.371 0 .248.124 1.486-.617 1.858-.37.248-.617.372-.864.372h-.247c-.617 0-1.111-.372-1.482-.744h-.123l-.247-.247c-.247-.124-.37-.248-.37-.248-.124-.124-.247-.124-.37-.124-.371-.124-.865 0-.989 0-.123-.124-.123 0-.123-.248s.37-.62.617-.62c.247-.123.124 0 .37 0 .248 0 .371-.37.495-.495.123-.124.246-.124.37 0 .123.124 0 0 0 .372 0 .248 0 .62.123.743h.124c.123 0 .247 0 .247.124v-.743c0-.124 0-.248.123-.372.124-.124.247 0 .247 0s.124 0 .124.124.123.248.123.248c.123.124.123 0 .247.124.247.124.247.124.37.248.124.247 0 .495.124.619l.247.248c0 .123 0 .247-.247.247-.124 0-.741-.247-.988-.247 0 .123 0 .247-.123.371 1.358.868 2.469-.124 2.345-1.61h-.246c-.37 0-.741-.372-.741-.743 0-.372.37-.744.74-.744s.741.372.741.743c0 .124 0 .372-.123.372.247.124.617.248.987.372 1.235.248 2.593-.496 2.593-2.106-.247 0-.37-.124-.494-.248 0 .372-.123.372-.247.62-.123.247-.123.619-.123.867 0 .62-.37.62-.494.62-.123 0-.37-.249-.247-.744 0-.248-.247-.248-.494-.62-.123-.123-.247-.371-.247-.867 0-.124.124-.248 0-.495l-.247-.248c-.123-.248 0-.496.247-.496.124 0 .37 0 .37.124.248.124.371.248.618.496.247.124.37.247.494.247 0-.247.123-.495.37-.619h-.123c-.37.124-.617-.124-.864-.248-.247-.123-.247-.247-.494-.247h-.37c-.124-.124-.248-.248-.124-.372 0-.124.247-.248.494-.248h.37c.247 0 .247-.248.247-.248 0-.123 0-.247.123-.371.124-.124.37-.248.37-.248h.248c.123 0 .247 0 .37.124.124 0 .247.124.37 0l.247-.248c.247-.124.37-.124.494-.124s.124.248.124.372-.247.248-.247.371c-.123.248-.123.372-.247.62-.123.248-.247.372-.494.62l-.123.123c.247 0 .493.124.617.372.123-.248.247-.496.37-.62.124-.247.124-.495.124-.743 0-.62.37-.62.494-.495.123.123.247.123.247.619 0 .248.37.124.617.496.123.123.37.371.247.99 0 .124-.124.372 0 .496.123.124.123.248.247.372.123.248-.124.495-.37.495-.124 0-.247-.123-.371-.247-.37-.248-.37-.248-.617-.372l-.494-.248c-.124 0-.124 0-.247-.124 0 .124-.123.248-.247.372.247.372.494.496.864.62 1.482.743 3.087-.372 3.21-1.611-.494-.124-.864-.496-.864-.991 0-.496.37-.991.988-.991.494 0 .987.495.987.99a.931.931 0 01-.617.868c.123.124.123.248.247.372.37.619 1.111.99 2.222.743 1.111-.124 1.482-1.115 1.605-1.487-.37-.123-.617-.247-.74-.62 0 .125-.124.373-.247.496-.124.124-.37.496-.37.62-.124.248-.248.371-.248.495-.123.124-.247.124-.247.124-.123 0-.247-.248-.247-.371 0-.248 0-.62-.123-.62-.123-.247-.494-.371-.494-.867 0-.62.37-.62.37-.867 0-.124-.123-.62-.123-.743 0-.248.123-.372.247-.372.247 0 .494.124.494.248.123.247.247.247.37.371.247.248.37.248.494.496.123.124.123.124.123.248.124-.372.37-.62.741-.744h-.123c-.37-.124-.618-.247-.741-.495-.247-.248-.247-.372-.494-.372-.247-.124-.247-.124-.37-.248-.124-.123-.124-.247 0-.371.123-.124.247-.248.617-.124.247 0 .247 0 .37.124.247.124.247 0 .37 0 .124-.124.248-.372.371-.372.247-.124.37-.124.37-.124s.124 0 .371.124.247.372.37.372c.124.124.124.124.37 0 .248-.124.248-.124.371-.124.247 0 .494 0 .617.124.124.124.124.247 0 .371-.123.124-.123.124-.37.248s-.247.248-.494.372c-.247.248-.37.371-.74.495h-.124c.37.124.617.372.74.744 0-.124.124-.248.124-.248s0-.124.124-.124l.247-.248.123-.124s.124 0 .124-.124c.123-.123.246-.247.246-.371l.247-.248c.124 0 .124-.124.247-.124.124 0 .247.248.247.372 0 .248-.123.62-.123.743l.123.124c.124.124.247.248.247.62v.123a.948.948 0 01-.247.62c-.123.124-.247.124-.247.248 0 .247-.123.495-.123.619s-.124.248-.247.371h-.247s-.123 0-.123-.123c0 0-.124-.124-.124-.248s-.123-.124-.123-.248-.124-.124-.124-.248c-.123-.123-.247-.247-.247-.371-.123-.248-.247-.372-.247-.62-.123.248-.37.496-.74.62.123.371.493 1.362 1.605 1.486.987.124 1.728-.248 2.222-.743.123-.124.123-.248.247-.372h-.124c-.493 0-.493-.123-.617-.123z" fill="#fff"/><path d="M41.853 61.289c0-.62.494-1.239 1.235-1.239.617 0 1.234.62 1.234 1.239 0 .62-.493 1.239-1.234 1.239-.74 0-1.235-.62-1.235-1.24zm.494-6.689c0-.62.494-1.116 1.235-1.116.617 0 1.11.496 1.11 1.115 0 .62-.493 1.239-1.11 1.239-.741 0-1.235-.62-1.235-1.239z" fill="#fff"/><path d="M44.322 53.36c0-.495.37-.867.865-.867.494 0 .864.372.864.867 0 .496-.37.867-.864.867a.845.845 0 01-.864-.867z" fill="#fff"/><path d="M46.051 52.865c0-.496.37-.867.864-.867s.864.371.864.867c0 .495-.37.867-.864.867a.845.845 0 01-.864-.867zm1.729-.125c0-.37.37-.742.74-.742s.741.371.741.743c0 .371-.37.743-.74.743-.371 0-.742-.248-.742-.743zm1.481.125c0-.372.37-.744.74-.744.371 0 .742.372.742.744 0 .371-.37.743-.741.743-.494 0-.741-.248-.741-.743z" fill="#fff"/><path d="M50.619 53.236c0-.247.247-.495.494-.495s.494.248.494.495c0 .248-.247.62-.494.62s-.494-.248-.494-.62zm.988.496c0-.248.247-.496.494-.496.246 0 .493.248.493.496s-.247.495-.493.495c-.247 0-.494-.247-.494-.495z" fill="#fff"/><path d="M52.47 54.227c0-.371.371-.743.742-.743.37 0 .74.372.74.743 0 .372-.246.744-.74.744-.37-.124-.741-.372-.741-.743z" fill="#fff"/><path d="M52.347 55.714c0-.495.37-.867.865-.867.494 0 .864.371.864.867s-.37.867-.864.867a.845.845 0 01-.865-.867z" fill="#fff"/><path d="M52.224 57.572c0-.62.494-.99.988-.99.617 0 .987.495.987.99 0 .62-.493.991-.987.991-.618 0-.988-.371-.988-.99zm-.37 2.354c0-.743.617-1.363 1.358-1.363.74 0 1.358.62 1.358 1.363s-.617 1.363-1.358 1.363c-.741-.124-1.358-.62-1.358-1.363zm-16.05 7.061c0-.619.493-1.114 1.11-1.114.618 0 1.112.495 1.112 1.114 0 .62-.494 1.115-1.111 1.115a1.108 1.108 0 01-1.111-1.115z" fill="#fff"/><path d="M34.693 65.005c0-.62.617-1.239 1.234-1.239a1.24 1.24 0 011.235 1.24c0 .619-.617 1.238-1.235 1.238-.74 0-1.234-.495-1.234-1.239z" fill="#fff"/><path d="M34.322 62.9c0-.62.494-1.116 1.111-1.116.618 0 1.111.496 1.111 1.115 0 .62-.493 1.115-1.11 1.115-.618 0-1.112-.62-1.112-1.115zm.371-2.23c0-.62.493-.992.987-.992.618 0 .988.496.988.991 0 .62-.494.991-.988.991-.494.124-.987-.371-.987-.99z" fill="#fff"/><path d="M35.68 59.059c0-.496.37-.991.988-.991.494 0 .988.372.988.99 0 .496-.37.992-.988.992-.617-.124-.988-.495-.988-.991z" fill="#fff"/><path d="M36.915 57.82c0-.495.37-.867.864-.867s.864.371.864.867-.37.867-.864.867c-.494-.124-.864-.495-.864-.867z" fill="#fff"/><path d="M38.396 57.077c0-.372.37-.743.741-.743.37 0 .74.371.74.743 0 .371-.37.743-.74.743s-.74-.372-.74-.743zm1.482-.248c0-.372.247-.62.617-.62s.617.248.617.62-.246.62-.617.62c-.37 0-.617-.248-.617-.62zm22.223 4.46c0-.62.494-1.239 1.235-1.239.617 0 1.234.62 1.234 1.239 0 .62-.494 1.239-1.234 1.239-.618 0-1.235-.62-1.235-1.24zm-.494-6.689c0-.62.494-1.116 1.235-1.116.617 0 1.11.496 1.11 1.115 0 .62-.493 1.239-1.11 1.239-.618 0-1.235-.62-1.235-1.239z" fill="#fff"/><path d="M60.249 53.36c0-.495.37-.867.864-.867s.864.372.864.867c0 .496-.37.867-.864.867-.37 0-.864-.371-.864-.867z" fill="#fff"/><path d="M58.644 52.865c0-.496.37-.867.864-.867s.864.371.864.867c0 .495-.37.867-.864.867a.845.845 0 01-.864-.867z" fill="#fff"/><path d="M57.163 52.74c0-.37.37-.742.74-.742s.741.371.741.743c0 .371-.37.743-.74.743-.371 0-.742-.248-.742-.743z" fill="#fff"/><path d="M55.804 52.865c0-.372.247-.744.741-.744.37 0 .741.372.741.744 0 .371-.37.743-.74.743-.495 0-.742-.248-.742-.743zm-1.111.371c0-.247.247-.495.617-.495.247 0 .494.248.494.495 0 .248-.247.62-.494.62-.37 0-.617-.248-.617-.62z" fill="#fff"/><path d="M53.83 53.732c0-.248.246-.496.493-.496s.494.248.494.496-.247.495-.494.495-.494-.247-.494-.495zm15.432 11.273c0-.62.493-1.239 1.234-1.239a1.24 1.24 0 010 2.478c-.74 0-1.234-.495-1.234-1.239z" fill="#fff"/><path d="M69.879 62.9c0-.62.494-1.116 1.111-1.116.618 0 1.111.496 1.111 1.115 0 .62-.493 1.115-1.11 1.115-.618-.124-1.112-.62-1.112-1.115zm-.247-2.23c0-.496.494-.992.988-.992.617 0 .987.496.987.991 0 .62-.493.991-.987.991-.494.124-.988-.371-.988-.99z" fill="#fff"/><path d="M68.891 59.059c0-.496.37-.867.864-.867s.865.371.865.867c0 .495-.37.867-.865.867-.37 0-.864-.372-.864-.867z" fill="#fff"/><path d="M67.78 57.82c0-.495.37-.867.864-.867s.865.371.865.867-.37.867-.865.867c-.494-.124-.864-.495-.864-.867z" fill="#fff"/><path d="M66.546 57.077c0-.372.246-.743.74-.743.37 0 .741.371.741.743 0 .371-.37.743-.74.743-.495 0-.742-.372-.742-.743zm-1.359-.248c0-.372.247-.62.618-.62.37 0 .617.248.617.62s-.247.62-.617.62c-.247 0-.618-.248-.618-.62zm-24.074-.248c0-.62.617-1.239 1.234-1.239a1.24 1.24 0 010 2.478c-.617-.124-1.234-.62-1.234-1.239z" fill="#fff"/><path d="M41.113 56.581c0-.62.617-1.239 1.234-1.239a1.24 1.24 0 010 2.478c-.617-.124-1.234-.62-1.234-1.239z" fill="#fff"/><path d="M40.619 59.059c0-.743.617-1.363 1.358-1.363.74 0 1.358.62 1.358 1.363s-.617 1.363-1.358 1.363c-.741 0-1.358-.62-1.358-1.363zm22.223-2.478c0-.62.494-1.239 1.11-1.239a1.24 1.24 0 011.235 1.24c0 .619-.493 1.114-1.234 1.114-.74 0-1.111-.495-1.111-1.115zm.123 2.478c0-.743.617-1.363 1.358-1.363.741 0 1.358.62 1.358 1.363s-.617 1.363-1.358 1.363c-.74 0-1.358-.62-1.358-1.363zm-9.877 11.397l-2.84-1.734 2.84-1.735 2.84 1.735c-.988.495-1.852 1.115-2.84 1.734z" fill="#fff"/><path d="M53.088 67.36c.741.37 1.358.866 2.1 1.238l-2.1 1.239-1.975-1.24 1.975-1.238zm9.383 2.229l-4.32-1.487-.742 2.23 4.445 1.487.617-2.23z" fill="#fff"/><path d="M62.101 69.837l-3.827-1.24-.37 1.364 3.703 1.362.494-1.486zm4.568 1.115v1.362l-1.235.62-1.11-1.858 2.345-.124z" fill="#fff"/><path d="M66.916 71.076h-2.47l1.235 1.858c.124.248-.123.371-.247.371L64.2 70.828s.247 0 2.84-.248c0 0 0 .496-.124.496zm-23.211-1.487l4.445-1.487.617 2.23-4.321 1.487-.74-2.23z" fill="#fff"/><path d="M44.2 69.837l3.703-1.24.494 1.364-3.828 1.362-.37-1.486zm-4.445 1.115l.123 1.362 1.234.62.988-1.858-2.346-.124z" fill="#fff"/><path d="M39.631 71.076h2.47l-1.235 1.858c-.124.248.123.371.246.371l1.235-2.477s-.247 0-2.84-.248c-.123 0-.123.496.124.496zm28.766-4.089c0-.619.494-1.114 1.111-1.114.618 0 1.112.495 1.112 1.114 0 .62-.494 1.115-1.112 1.115a1.108 1.108 0 01-1.11-1.115zM36.915 81.234c1.111 13.999 6.543 25.272 17.655 34.068-.988.991-1.852 1.858-2.346 2.23-11.852-9.663-18.52-24.281-18.643-39.519h37.533v3.221h-34.2z" fill="#fff"/><path d="M71.237 85.074H41.73c1.975 12.76 6.173 19.945 15.926 27.131.618-.744 1.482-1.487 2.1-2.106-8.89-6.318-12.717-13.38-14.075-21.804h25.556v-3.22z" fill="#fff"/></g><defs><clipPath id="clip0"><path fill="#fff" d="M0 0h451.744v233.081H0z"/></clipPath></defs></svg>